<?xml version="1.0" standalone="no"?>
<!DOCTYPE svg PUBLIC "-//W3C//DTD SVG 20010904//EN"
 "http://www.w3.org/TR/2001/REC-SVG-20010904/DTD/svg10.dtd">
<svg version="1.0" xmlns="http://www.w3.org/2000/svg"
 width="405.000000pt" height="405.000000pt" viewBox="0 0 405.000000 405.000000"
 preserveAspectRatio="xMidYMid meet">
<metadata>
Created by potrace 1.14, written by Peter Selinger 2001-2017
</metadata>
<g transform="translate(0.000000,405.000000) scale(0.100000,-0.100000)"
fill="#000000" stroke="none">
<path d="M799 4026 c-108 -32 -202 -88 -284 -170 -81 -81 -115 -136 -155 -255
l-29 -85 -1 -1515 c0 -1057 3 -1534 11 -1576 39 -214 140 -352 296 -404 63
-21 64 -21 1525 -19 1445 3 1463 3 1490 23 15 11 37 40 49 64 22 44 22 44 15
540 -4 273 -7 1142 -7 1933 0 1431 0 1436 -20 1462 l-21 26 -1396 -1 -1397 -1
-76 -22z m186 -1657 l0 -1534 -90 -2 c-103 -2 -199 -9 -234 -17 -34 -8 -126
-55 -150 -77 -11 -11 -24 -19 -28 -19 -4 0 -7 622 -7 1382 1 1289 3 1387 19
1443 21 71 45 121 75 155 12 14 30 34 39 45 29 36 98 85 158 111 62 28 165 54
198 49 20 -2 20 -9 20 -1536z m2575 1451 c1 -122 1 -2962 0 -2977 0 -10 -251
-13 -1215 -12 l-1214 0 0 1532 c0 889 3 1534 9 1537 5 3 551 5 1214 5 l1206 0
0 -85z m11 -3185 c0 -59 0 -355 0 -437 l-1 -58 -1411 0 c-1056 0 -1422 3
-1453 12 -119 34 -190 132 -190 263 0 56 6 81 27 122 14 29 34 61 44 72 25 26
99 64 141 70 19 3 667 6 1438 6 l1404 0 1 -50z"/>
<path d="M2360 3390 c-6 -11 -9 -24 -6 -28 2 -4 7 -23 10 -42 3 -19 12 -70 19
-112 8 -43 11 -78 8 -79 -186 -23 -388 -126 -536 -274 -111 -111 -187 -238
-210 -350 -3 -16 -8 -41 -11 -55 -10 -43 -11 -193 -2 -240 27 -144 54 -208 79
-183 5 5 19 54 30 107 24 121 51 193 102 276 103 169 284 271 525 296 29 3 32
1 28 -19 -3 -12 -7 -38 -10 -57 -3 -19 -8 -51 -11 -70 -3 -19 -9 -60 -14 -90
-5 -30 -6 -60 -4 -67 8 -21 36 -15 68 15 17 15 75 65 130 112 55 47 105 90
110 96 6 6 78 70 162 143 97 85 150 137 147 146 -3 8 -65 62 -137 121 -73 60
-134 111 -137 114 -3 3 -27 24 -55 45 -27 22 -55 45 -61 50 -11 10 -41 35
-149 124 -27 23 -53 41 -57 41 -4 0 -12 -9 -18 -20z"/>
<path d="M2976 2702 c-3 -5 -8 -30 -11 -56 -8 -66 -51 -208 -79 -265 -25 -48
-82 -128 -120 -167 -86 -87 -260 -163 -410 -178 l-58 -6 7 38 c4 20 9 51 11
67 2 17 6 41 9 55 2 14 7 48 11 75 3 28 8 52 10 54 6 7 -18 31 -31 31 -7 0
-23 -10 -36 -23 -24 -23 -140 -124 -193 -168 -16 -13 -36 -31 -45 -40 -9 -8
-85 -75 -168 -148 -84 -73 -153 -137 -153 -141 0 -11 15 -26 70 -70 24 -19 73
-60 109 -91 190 -162 414 -340 424 -336 16 6 12 95 -8 192 -12 62 -13 80 -3
86 6 4 15 6 19 3 4 -2 46 8 95 21 144 42 284 120 388 216 223 206 303 466 233
759 -19 81 -26 95 -44 98 -12 2 -24 -1 -27 -6z"/>
<path d="M700 582 c-14 -2 -44 -51 -36 -59 3 -3 1996 -5 2664 -3 l143 0 -3 33
-3 32 -1375 0 c-757 0 -1382 -1 -1390 -3z"/>
<path d="M646 441 c-2 -3 -3 -17 -2 -31 l1 -25 1413 -3 1413 -2 -3 32 -3 33
-1408 1 c-775 0 -1410 -2 -1411 -5z"/>
<path d="M665 302 c-2 -3 2 -17 11 -33 l15 -29 1389 0 1390 0 0 33 0 33 -1400
0 c-771 0 -1403 -2 -1405 -4z"/>
</g>
</svg>
