<svg xmlns="http://www.w3.org/2000/svg" xmlns:xlink="http://www.w3.org/1999/xlink" version="1.1" width="1000" height="1000" viewBox="0 0 1000 1000" xml:space="preserve">
<desc>Created with Fabric.js 3.5.0</desc>
<defs>
</defs>
<rect x="0" y="0" width="100%" height="100%" fill="rgba(255,255,255,0)"/>
<g transform="matrix(1.7773 0 0 1.7756 500.4451 500.004)" id="805250">
<path style="stroke: none; stroke-width: 1; stroke-dasharray: none; stroke-linecap: butt; stroke-dashoffset: 0; stroke-linejoin: miter; stroke-miterlimit: 4; is-custom-font: none; font-file-url: none; fill: rgb(255,0,0); fill-rule: evenodd; opacity: 1;" vector-effect="non-scaling-stroke" transform=" translate(-256.001, -104.2454)" d="M 296.4 208.49 c 4.15 -53.83 20.56 -43.09 66.49 -71.82 c 14.19 29.59 71.85 31.75 83.67 0 c 39.64 25.34 65.71 15.61 65.44 71.82 H 296.4 z m 30.85 -147.27 h -33.33 v 16.16 c -0.13 2.91 -1.09 4.97 -2.9 6.17 c -4.85 3.24 -9.88 -0.95 -13.01 -4.25 l -27.9 -30.52 c -3.59 -3.25 -3.59 -7.88 0 -11.13 L 278.92 6.3 c 2.92 -3.17 7.62 -6.41 12.1 -3.42 c 1.81 1.19 2.77 3.25 2.9 6.16 v 16.17 h 33.33 v 36.01 z m -142.5 62.16 h 33.33 v 16.16 c 0.13 2.91 1.09 4.97 2.9 6.17 c 4.85 3.24 9.87 -0.95 13.01 -4.25 l 27.9 -30.52 c 3.59 -3.25 3.59 -7.88 0 -11.13 l -28.81 -31.35 c -2.92 -3.17 -7.62 -6.41 -12.1 -3.43 c -1.81 1.2 -2.77 3.26 -2.9 6.17 v 16.17 h -33.33 v 36.01 z M 77.33 134.33 c -0.62 -0.79 1.6 -6.25 2.12 -7.13 c -6 -5.34 -10.74 -10.73 -11.75 -21.81 l -0.65 0.01 c -1.48 -0.02 -2.92 -0.36 -4.26 -1.13 c -2.15 -1.22 -3.66 -3.32 -4.68 -5.68 c -2.16 -4.97 -9.28 -21.45 1.57 -20.14 c -6.07 -11.33 7.66 -30.67 -16.01 -37.83 c 19.42 -24.59 60.39 -62.52 90.42 -24.48 c 32.87 3.19 43.12 42.25 20.99 63.64 c 1.29 0.05 2.52 0.35 3.6 0.93 c 4.11 2.2 4.25 6.98 3.17 11 c -1.07 3.35 -2.43 5.62 -3.71 8.88 c -1.56 4.41 -3.84 5.24 -8.24 4.76 c -0.22 10.91 -5.27 16.26 -12.05 22.67 l 1.86 6.29 c -9.1 19.3 -46.89 20.07 -62.38 0.02 z M 0 208.49 c 4.16 -53.83 20.56 -43.09 66.5 -71.82 c 14.19 29.59 71.84 31.75 83.67 0 c 39.64 25.34 65.7 15.61 65.43 71.82 H 0 z m 373.72 -74.16 c -0.61 -0.79 1.6 -6.25 2.13 -7.13 c -6 -5.34 -10.75 -10.73 -11.76 -21.81 l -0.64 0.01 c -1.49 -0.02 -2.92 -0.36 -4.26 -1.13 c -2.15 -1.22 -3.66 -3.32 -4.68 -5.68 c -2.16 -4.97 -9.28 -21.45 1.56 -20.14 c -6.06 -11.33 7.66 -30.67 -16.01 -37.83 c 19.42 -24.59 60.4 -62.52 90.43 -24.48 c 32.86 3.19 43.12 42.25 20.99 63.64 c 1.29 0.05 2.51 0.35 3.6 0.93 c 4.11 2.2 4.24 6.98 3.16 11 c -1.07 3.35 -2.43 5.62 -3.71 8.88 c -1.56 4.41 -3.83 5.24 -8.23 4.76 c -0.23 10.91 -5.27 16.26 -12.05 22.67 l 1.85 6.29 c -9.09 19.3 -46.89 20.07 -62.38 0.02 z" stroke-linecap="round"/>
</g>
</svg>