<svg xmlns="http://www.w3.org/2000/svg" xmlns:xlink="http://www.w3.org/1999/xlink" version="1.1" width="1000" height="1000" viewBox="0 0 1000 1000" xml:space="preserve">
<desc>Created with Fabric.js 3.5.0</desc>
<defs>
</defs>
<rect x="0" y="0" width="100%" height="100%" fill="rgba(255,255,255,0)"/>
<g transform="matrix(1.9094 0 0 1.9094 499.9951 499.9958)" id="214429">
<path style="stroke: none; stroke-width: 1; stroke-dasharray: none; stroke-linecap: butt; stroke-dashoffset: 0; stroke-linejoin: miter; stroke-miterlimit: 4; is-custom-font: none; font-file-url: none; fill: rgb(255,0,0); fill-rule: nonzero; opacity: 1;" vector-effect="non-scaling-stroke" transform=" translate(-256.0009, -224.1236)" d="M 118.68 353.3 c -0.3 -2.88 1.81 -5.46 4.68 -5.76 c 2.88 -0.29 5.47 1.81 5.77 4.69 c 1.74 16.87 1.59 32.72 -0.23 47.61 c -1.82 14.93 -5.35 29.01 -10.36 42.29 a 5.25 5.25 0 0 1 -6.76 3.06 c -2.71 -1.02 -4.09 -4.06 -3.06 -6.76 c 4.69 -12.46 8.01 -25.72 9.74 -39.87 c 0.38 -3.11 0.68 -6.27 0.91 -9.47 c -48.14 -12.68 -79.04 -39.3 -95.47 -71.43 c -4.23 0.24 -8.39 -0.73 -12.01 -2.69 c -4.99 -2.69 -9.01 -7.26 -10.84 -13.03 l -0.21 -0.7 c -1.64 -5.82 -0.8 -11.82 1.88 -16.81 c 1.87 -3.46 4.63 -6.44 8.07 -8.56 c -4.26 -29.9 1.13 -61.26 14.44 -88.83 l 1.44 -2.91 l -0.22 -4.56 l -4.32 -88.94 l 1.66 -1.65 c 26.19 -26.16 53.54 -46.05 81.88 -60.39 c 28.39 -14.37 57.78 -23.18 88.01 -27.15 l 5.71 -0.75 l 4.28 112.06 c 7.83 2.54 15.84 5.68 23.99 9.46 L 228.12 0.87 l 4.94 -0.27 C 259.64 -0.92 286.24 0.42 312.81 5 c 26.56 4.58 53.19 12.45 79.82 23.99 l 3.19 1.39 v 209.44 l -7.76 -4.16 c -16.57 -8.91 -33.84 -16.72 -51.75 -23.46 c -15.68 -5.9 -31.86 -10.99 -48.5 -15.3 l 10.25 34.23 c 1.51 5.05 0.65 9.35 -1.48 13.19 l 14.16 15.33 c 4.27 3.68 6.95 7.74 8.22 11.69 c 0.92 2.86 1.12 5.68 0.69 8.27 c -0.43 2.58 -1.49 4.94 -3.07 6.94 l -0.3 0.39 c -1.85 2.19 -4.34 3.89 -7.38 4.91 l -11.26 4.1 l 0.52 1.85 c 2.11 7.41 4.18 14.65 5.72 22.4 l 0.09 0.67 c 1.09 4.19 1.96 8.39 2.64 12.56 c 0.58 3.61 1.02 7.18 1.32 10.7 c 4.96 5.5 8.21 10.66 9.98 15.43 l 0.12 0.37 c 2.45 6.87 1.94 12.98 -0.88 18.32 c -2.71 5.12 -7.53 9.31 -13.85 12.58 c -8.27 4.27 -19.34 7.09 -31.67 8.49 c -9.33 1.05 -19.84 1.58 -30.19 1.17 c 0.09 0.45 0.12 0.92 0.08 1.39 c -0.41 5.13 -0.7 15.15 -0.43 24.23 c 0.19 6.37 0.66 12.28 1.52 15.52 c 0.75 2.8 -0.92 5.69 -3.72 6.44 c -2.8 0.74 -5.69 -0.92 -6.44 -3.72 c -1.08 -4.04 -1.63 -10.81 -1.85 -17.95 c -0.29 -9.62 0 -20.06 0.43 -25.34 c 0.03 -0.46 0.13 -0.9 0.27 -1.31 c -8.95 -0.96 -17.53 -2.79 -24.86 -5.74 c -10.02 -4.04 -15.95 -12.19 -21 -19.14 l -3.23 -4.37 c -4.54 -6.12 -12.47 -16.79 -17.61 -18.74 a 5.272 5.272 0 0 1 -3.04 -6.79 c 1.04 -2.71 4.08 -4.08 6.79 -3.04 c 7.98 3.04 17.08 15.29 22.3 22.31 l 3.3 4.46 c 4.23 5.83 9.21 12.66 16.39 15.56 c 7.34 2.95 16.36 4.63 25.79 5.38 c 11.61 0.91 23.77 0.42 34.36 -0.77 c 11.09 -1.26 20.89 -3.71 28 -7.39 c 4.44 -2.29 7.72 -5.02 9.37 -8.13 c 1.44 -2.74 1.66 -6.02 0.31 -9.85 l -0.13 -0.32 c -1.42 -3.83 -4.28 -8.17 -8.85 -13.04 a 5.29 5.29 0 0 1 -1.6 -3.41 c -0.29 -3.95 -0.74 -7.84 -1.35 -11.65 l -0.57 -3.24 c -2.44 1.71 -4.95 3.11 -7.54 4.17 c -5.3 2.19 -10.86 2.98 -16.66 2.25 c -2.88 -0.35 -4.93 -2.98 -4.58 -5.86 c 0.34 -2.88 2.98 -4.93 5.86 -4.58 c 4 0.49 7.8 -0.04 11.39 -1.51 c 3.09 -1.27 6.1 -3.26 9.03 -5.9 c -1.44 -6.79 -3.26 -13.19 -5.12 -19.73 l -0.31 -1.12 l -7.62 2.78 l -3.58 -9.87 c 9.46 -3.45 19.59 -7.49 29.06 -10.59 c 1.12 -0.38 2.02 -0.98 2.65 -1.72 l 0.16 -0.18 c 0.44 -0.59 0.75 -1.31 0.87 -2.07 c 0.16 -1.02 0.07 -2.17 -0.32 -3.36 c -0.72 -2.23 -2.41 -4.68 -5.25 -7.08 l -13.85 -14.96 c -1.77 1.68 -3.65 3.3 -5.5 4.89 c -2.1 1.8 -4.17 3.58 -5.81 5.27 c -2.43 2.5 -3.85 6.47 -5.2 10.26 c -2.46 6.86 -4.77 13.33 -12.52 15.65 l -49.61 14.85 l -0.11 0.04 l -0.11 0.03 l -0.52 0.15 l -34.68 10.39 c -11.07 3.31 -22.5 1.79 -31.98 -3.32 c -8.77 -4.73 -15.91 -12.55 -19.55 -22.47 l -89.76 26.87 c 15.25 28.15 42.9 51.51 85.31 63.22 c 0.11 -8.08 -0.26 -16.42 -1.14 -25.04 z m 216.17 -209.85 l -13.18 -15.32 l -2.78 16.52 c -0.34 2.34 -3.34 2.65 -4.97 0.46 l -20.13 -27.94 l -21.12 14.8 v 9.95 c 25.75 3.17 51.05 11.85 75.85 19.07 v -29.27 L 336 143.58 c -0.12 0.17 -0.36 0.26 -0.61 0.21 c -0.21 -0.05 -0.4 -0.17 -0.54 -0.34 z m 0.48 -7.34 l 13.18 -13.12 V 98.47 c -25.29 -7.17 -50.57 -12.18 -75.84 -15.42 v 41.23 c 6.4 -4.49 13 -9.52 19.55 -13.7 c 0.58 -0.38 1.29 -0.45 1.98 -0.26 c 0.72 0.17 1.43 0.63 1.94 1.29 l 0.02 0.04 c 0.02 0.04 0.06 0.08 0.09 0.13 l 18 24.95 l 2.67 -15.88 c 0.15 -0.72 0.57 -1.26 1.15 -1.56 c 0.57 -0.29 1.31 -0.35 2.07 -0.08 l 0.08 0.04 c 0.27 0.09 0.53 0.24 0.77 0.4 c 0.26 0.18 0.49 0.4 0.71 0.65 l 13.63 15.81 z m -10.36 -37.57 c 3.12 1.91 5.18 5.4 5.18 8.77 c 0 4.63 -3.76 7.59 -8.35 6.66 c -2.23 -0.45 -4.32 -1.77 -5.91 -3.65 c -1.58 -1.91 -2.45 -4.17 -2.45 -6.41 c 0 -1.1 0.23 -2.15 0.62 -3.06 c 0.84 -1.87 2.49 -3.19 4.53 -3.61 c 2.03 -0.46 4.35 0.04 6.38 1.3 z m -4.55 3.51 c -1.81 0.41 -2.67 2.26 -1.92 4.25 a 4.81 4.81 0 0 0 1.92 2.33 c 1.8 1.13 3.9 0.65 4.66 -0.98 c 1.19 -2.72 -1.73 -6.18 -4.66 -5.6 z m -49.45 -25.11 c 27.46 2.83 54.29 8.02 80.3 16.43 c 1.54 0.31 2.75 1.86 2.75 3.39 v 68.17 c 0 1.52 -1.21 2.59 -2.75 2.27 c -27.03 -7.57 -54.1 -16.64 -81.17 -20.16 c 2.89 2.05 5.8 4.17 8.71 6.38 l 0.85 0.8 c 1.87 2.21 1.59 5.53 -0.62 7.41 l -10.1 8.54 c 2.33 0.14 4.59 0.79 6.6 1.87 c 3.55 1.92 6.39 5.2 7.63 9.35 l 1.14 3.81 c 19.19 4.72 37.78 10.43 55.7 17.18 a 438.208 438.208 0 0 1 45.27 19.96 V 37.26 c -24.71 -10.43 -49.48 -17.62 -74.24 -21.89 c -24.16 -4.18 -48.33 -5.57 -72.46 -4.53 l -0.45 116.54 c 9.66 5.07 19.52 11.04 29.55 17.98 c -0.31 -0.53 -0.5 -1.13 -0.5 -1.72 V 79.11 c 0 -2.51 1.97 -2.36 3.79 -2.17 z m -6.57 -33.36 c 16.47 0.48 32.88 2.11 49.19 4.96 c 16.3 2.85 32.71 6.98 49.19 12.45 l -3.29 9.95 c -15.8 -5.24 -31.72 -9.23 -47.71 -12.02 c -15.96 -2.8 -31.86 -4.39 -47.66 -4.85 l 0.28 -10.49 z m 180.05 95.64 c 9.38 5.89 17.75 12.46 25.12 19.64 c 7.5 7.3 13.97 15.24 19.43 23.75 l -8.84 5.67 c -5.04 -7.85 -11.01 -15.17 -17.91 -21.9 c -6.84 -6.66 -14.64 -12.77 -23.39 -18.28 l 5.59 -8.88 z m 0 -35.47 c 9.37 5.89 17.74 12.45 25.11 19.63 c 7.5 7.3 13.98 15.24 19.44 23.76 l -8.84 5.67 c -5.04 -7.86 -11.02 -15.18 -17.92 -21.9 c -6.84 -6.66 -14.64 -12.77 -23.38 -18.27 l 5.59 -8.89 z m -16.81 -53.32 c 28.29 13.84 49.15 32.58 63.06 55.48 c 14.39 23.68 21.3 51.68 21.3 83.18 v 171.12 l -91.94 -114.18 V 46.73 l 7.58 3.7 z m 54.1 60.9 c -11.61 -19.09 -28.54 -35.11 -51.14 -47.55 v 178.6 l 70.87 88.01 v -141.3 c 0 -29.64 -6.41 -55.82 -19.73 -77.76 z M 52.51 106 c 19.25 -15.51 39.09 -27.97 59.4 -37.63 c 20.33 -9.65 41.18 -16.52 62.47 -20.85 l 2.1 10.28 c -20.45 4.16 -40.5 10.77 -60.08 20.07 c -19.58 9.31 -38.72 21.33 -57.31 36.31 L 52.51 106 z m -8 50.55 c 12.05 -14.9 26.92 -27.55 44.19 -36.66 c 28.86 -15.23 64.33 -20.61 104.34 -10.23 l -3.7 -97.01 c -27.06 4.14 -53.41 12.39 -78.94 25.31 c -26.77 13.55 -52.67 32.27 -77.55 56.82 l 3.44 70.89 c 2.73 -3.15 5.47 -6.19 8.22 -9.12 z m 147.88 -36.14 c -36.59 -7.75 -64.79 -5.45 -88.82 4.91 c -18.69 8.06 -35.08 21.07 -51.08 38.06 c -6.98 8.68 -12.95 18.18 -17.79 28.22 c -12.07 25.01 -17.18 53.33 -13.81 80.46 l 90.36 -27.05 l -3.45 -11.53 c -1.1 -4.02 -0.51 -8.17 1.34 -11.61 c 1.86 -3.45 5 -6.22 8.98 -7.52 l 0.68 -0.21 l 34.7 -10.38 l 0.2 -0.06 l 0.11 -0.04 l 93.2 -27.91 c 0.23 -0.56 0.56 -1.09 0.99 -1.57 l 19.18 -16.29 c -26.35 -19.08 -51.43 -31.14 -74.79 -37.48 z m 9.2 151.13 c -3.74 1.13 -5.87 5.07 -4.75 8.8 c 1.13 3.75 5.06 5.87 8.8 4.75 a 7.065 7.065 0 0 0 4.75 -8.8 c -1.12 -3.74 -5.06 -5.86 -8.8 -4.75 z m 32.12 -9.61 c -3.74 1.12 -5.87 5.06 -4.74 8.8 a 7.05 7.05 0 0 0 8.8 4.74 a 7.067 7.067 0 1 0 -4.06 -13.54 z m -77.58 -49.45 a 6.62 6.62 0 0 0 -3.76 3.17 a 6.673 6.673 0 0 0 -0.53 5.07 l 15.55 51.95 c 2.6 8.66 8.52 15.49 15.94 19.49 c 7.3 3.93 16.07 5.16 24.6 2.74 l 0.06 -0.01 l 0.41 -0.12 l 0.11 -0.04 l 49.72 -14.88 c 3.31 -0.99 4.88 -5.35 6.53 -9.98 c 1.67 -4.68 3.43 -9.59 7.27 -13.55 c 1.94 -1.99 4.15 -3.9 6.41 -5.84 c 6.11 -5.25 12.65 -10.87 10.89 -16.76 l -14.89 -49.73 a 6.608 6.608 0 0 0 -3.21 -3.92 a 6.751 6.751 0 0 0 -5.08 -0.54 l -109.64 32.83 l -0.11 0.04 l -0.11 0.03 l -0.08 0.02 l -0.08 0.03 z m 27.28 89.77 c -1.5 -0.61 -2.97 -1.29 -4.39 -2.06 c -9.48 -5.11 -17.04 -13.84 -20.36 -24.93 l -15.56 -51.94 c -0.68 -2.28 -0.81 -4.59 -0.48 -6.8 l -21.6 6.47 a 6.56 6.56 0 0 0 -3.85 3.19 a 6.673 6.673 0 0 0 -0.53 5.07 l 4.61 15.4 l 0.03 0.11 l 10.34 34.55 l 0.04 0.11 l 0.53 1.78 c 2.59 8.67 8.51 15.5 15.94 19.5 s 16.39 5.2 25.07 2.6 l 10.21 -3.05 z m -69.55 -48.52 l -95.22 28.51 c -3.5 1.06 -6.27 3.48 -7.89 6.5 c -1.64 3.05 -2.13 6.72 -1.07 10.24 l 0.02 0.07 c 1.06 3.49 3.48 6.27 6.5 7.89 c 3.04 1.65 6.71 2.14 10.25 1.09 l 95.13 -28.48 l -7.72 -25.82 z" stroke-linecap="round"/>
</g>
</svg>