<svg id="Layer_1" data-name="Layer 1" xmlns="http://www.w3.org/2000/svg" viewBox="0 0 857.96 999.82"><defs><style>.cls-1{fill:#fe0000;}</style></defs><path class="cls-1" d="M.08,894.93V132.06c3,.13,1.72-2.29,1.81-3.45A123.31,123.31,0,0,1,8.31,98C17.57,71,33.15,48.2,55.83,30.61a142.47,142.47,0,0,1,56.43-27c3.91-.89,8.61,0,11.79-3.52H830.88c-1.22,2.71-.62,5.57-.62,8.35q0,376.16,0,752.3c0,2,.07,4,0,6a17.16,17.16,0,0,1-8.15,14.6c-5.47,3.56-11.59,5-17.88,5.65-11.28,1.19-22.6.35-33.91.35q-317.4-.17-634.79,0a79.23,79.23,0,0,0-23.57,3.45C72.19,803,49.63,844.41,61.3,884c9.23,31.31,38.85,53.7,71.52,53.7q330.39.07,660.78.12c4.62,0,5.48-1.56,5.44-5.77-.19-23,0-46-.17-69,0-4.13,1.34-5.53,5.48-5.49q24.24.27,48.48,0c4,0,5.2,1.51,5.19,5.3-.08,31.65.15,63.31-.11,95-.18,21.54-14.55,35.21-36.18,35.21q-333.39,0-666.78,0c-9.64,0-19.37-.67-28.5,3.2-3.1,1.31-7.18.16-9.4,3.67h-34c-.89-1.67-.89-1.66-3-2.19-16.74-4.28-31.52-12.12-43.78-24.39C15.63,952.63,4.7,927.42,1.87,898.47,1.76,897.3,3.2,894.78.08,894.93ZM428.7,548H624.07c1.17,0,2.34.07,3.5,0,5.63-.39,11.23-5.39,10.22-10-1.18-5.3-1.94-10.89-4.91-15.64q-13.67-21.84-27.48-43.58c-9.52-15-19.25-29.82-28.73-44.82-17.48-27.65-34.75-55.42-52.28-83-13-20.42-26.21-40.65-39.27-61-14-21.77-28.19-43.4-41.65-65.49-6.05-9.94-22.94-10.09-28.69-.45-5.92,9.92-12.37,19.52-18.62,29.23-11.71,18.2-23.83,36.14-35.05,54.62-9.51,15.67-19.58,31-29.32,46.47-7.07,11.25-14.38,22.39-21.6,33.55C299.66,404.13,289.46,420.64,279,437c-11.37,17.68-22.75,35.35-33.65,53.31C237.77,502.69,228.24,514,223,527.69c-1.52,4-3.73,8.26-2.68,12.68,1.24,5.19,5.77,7.62,12.55,7.62Z" transform="translate(-0.08 -0.08)"/><path class="cls-1" d="M439.27,820H740.12c13.34,0,19.92,9.78,14.81,22.26-1.78,4.36-5.44,6.59-10,7.19a31.39,31.39,0,0,1-4,.06q-301.59,0-603.18,0c-2.82,0-5.67.27-8.37-.93-6.44-2.86-8.87-9.67-6.93-19.48,1.11-5.59,5.39-8.84,12-9.07,2.17-.08,4.33,0,6.5,0Z" transform="translate(-0.08 -0.08)"/><path class="cls-1" d="M438.47,907.61q-151.2,0-302.41.06c-5.48,0-10.35-1.35-12.47-6.42-2.56-6.12-2.77-12.75,1-18.7,1.86-3,5.09-4.18,8.58-4.34,2-.09,4,0,6,0H740.47c13,0,19.36,9.17,14.68,21.6-1.89,5-6.09,7.3-11.27,7.77-2,.19-4,0-6,0Z" transform="translate(-0.08 -0.08)"/><path class="cls-1" d="M454,355.38c.37,13.09-2.24,26.81-3.65,40.67-1.3,12.88-4.26,25.56-4.41,38.57,0,3.42-1.37,6.77-1.05,10.28.19,2.17-1.16,2.89-3.14,2.88h-26c-1.46,0-2.51-.24-2.69-2.09-.89-9-1.8-17.93-2.82-26.88-1-8.28-2.23-16.5-3.28-24.76-2.2-17.38-3.6-34.79-3-52.32.11-2.77,0-5.45,1.16-8.21,3.19-7.45,8.23-11.8,16.08-14.91,9.83-3.9,24.2,1.67,28.89,9.42,2.27,3.75,4.15,7.73,3.89,12.44S454,349.79,454,355.38Z" transform="translate(-0.08 -0.08)"/><path class="cls-1" d="M428.64,469c4.32,0,8.65,0,13,0,2.66,0,3.39,1.14,2.94,3.75a67.26,67.26,0,0,0-.09,20.23c.37,2.75-.15,3.74-2.77,3.74-8.66,0-17.31-.05-26,0-2.34,0-2.91-1.09-2.55-3.11a60.31,60.31,0,0,0,0-21.56c-.46-2.48.64-3.18,3-3.11C420.32,469.11,424.48,469,428.64,469Z" transform="translate(-0.08 -0.08)"/></svg>