<svg id="Layer_1" data-name="Layer 1" xmlns="http://www.w3.org/2000/svg" viewBox="0 0 969.25 999.8"><defs><style>.cls-1{fill:#fd0509;}</style></defs><path class="cls-1" d="M123.1,999.9h-65c1-9.33,4.68-18,7.2-26.91,2.18-7.73,4.54-15.51,6.44-23.24,2.07-8.4,4.57-16.74,6.88-25,2.41-8.69,4.36-17.59,7.44-26.14,2.06-5.73,2.33-12.32,4.56-17.57,3.11-7.31,5-15,6.89-22.41,2.4-9.18,4.84-18.44,7.15-27.69,1.27-5.08,3-10,4.41-15.09,1.75-6.35,3.47-12.71,5-19.11s3.9-12.25,5.09-18.62c1-5.48,3.2-10.71,4.7-16.09,1.62-5.79,3.84-11.6,4.92-17.43a145.92,145.92,0,0,1,4.94-17.94c2.83-8.7,4.65-17.62,7.3-26.33,1.72-5.66,2.84-11.51,4.15-16.92-30.18-2.21-60.88,2.15-91.43-2.3a55.29,55.29,0,0,1-19.38-6.81c-12-6.83-21.76-16.48-27.55-29.27-3.22-7.08-6-14.15-5.94-22.6q.45-251.7.36-503.39c0-6.81-1.38-13.55,2.48-20.69,4.9-9.06,8.78-18.46,16.38-25.82Q40,53.21,67.52,53.13,184,53,300.46,53.09c1.34,0,2.67,0,4,0,1.58,0,2.88-1,2.5-2.42-1.06-3.94,1.2-7.25,2.4-10.39s.65-6.32,2.07-9.42a57.25,57.25,0,0,0,2.64-8.75c2-7.43,3.08-15.16,7-22h62c1.13,7.45-2.77,13.91-4.56,20.68-2.8,10.66-5.06,21.43-8.27,32.31,27.59,0,54.73-.05,81.87.07,3.1,0,3-1.53,3-3.69,0-14,.09-28-.1-42,0-3.32.56-4.54,4.24-4.5q27.24.31,54.47,0c3.39,0,4.5.67,4.44,4.29-.23,14,0,28-.16,42,0,3,.7,3.92,3.83,3.89,16.32-.17,32.65-.08,49-.08q14.24,0,28.48,0c2.52,0,3.43,0,1.76-3.13-2.85-5.27-4.82-11-7-16.68-2.47-6.53-4.86-13.1-7-19.74C585.53,9,581.86,5.25,582,.1h66c1,2.54,2,5.08,3,7.62,2.47,6.11,5.4,12.07,7.31,18.36,2.14,7.07,5.32,13.76,7.39,20.76,1.38,4.68,3,6.33,7.75,6.32,74.14-.1,148.28,0,222.42-.12,15.22,0,30,1.59,43.07,10.12,6.61,4.3,13,9,17.69,15.5A65.45,65.45,0,0,1,963.8,91c2.83,6.58,6.3,12.49,6.29,20.32q-.36,252.42-.29,504.84c0,7.16,1.79,14.49-2.64,21.56-2.26,3.61-3.28,8.29-5.63,12.09a67.09,67.09,0,0,1-28.16,25.77c-8.62,4.23-17.6,6.89-26.71,7.14-26.3.72-52.64.26-79,.26h-4.8c2.4,8.52,5.26,16.64,6.89,25,1.71,8.83,4.25,17.53,6.72,26,2.42,8.3,3.84,17,7.1,25.14.78,2,2.73,3.91,2.3,6.34-.73,4.1,1.09,8.2,2.46,11.28,3.59,8.08,4,16.9,7.32,25,2.27,5.53,2.73,11.85,4.94,17.6a64.26,64.26,0,0,1,3.11,11.13c1.66,8.91,4.78,17.4,6.81,26.2,1.77,7.71,3.49,15.54,6.05,23.14.78,2.32,3,4.46,2.36,7.38-.85,3.91,1.25,7.77,2.51,10.78,2.46,5.85,3,12.11,5.18,18,.85,2.21,2.27,4.42,2.51,7.21A54.37,54.37,0,0,0,892.34,936c2.6,7.6,4.47,15.44,6.57,23.21,1.59,5.89,2.89,11.87,4.63,17.73,2.24,7.54,5.42,14.85,5.38,22.93h-64c-1.39-2.6,0-5.94-1.24-8.12-3.2-5.62-3.36-12.07-5.74-17.86-2.7-6.57-3.32-13.71-5.63-20.42-2.59-7.52-4.26-15.35-6.4-23-2.34-8.38-5.09-16.66-7-25.12-1.35-6-3.59-11.66-4.43-17.8a38.49,38.49,0,0,0-2-9.13c-1.62-4-3.37-7.71-3.57-12.11-.25-5.53-2.44-7.4-7.88-7.4q-139,0-277.91-.09c-4.05,0-5.22.8-5.2,5.07.18,41.48.06,83,.2,124.46,0,3.72-.86,4.68-4.62,4.64q-27-.33-54,0c-3.86,0-4.57-1.07-4.56-4.7.14-41.32.09-82.64.09-124,0-1.72-.21-3.46.72-5.42H165.53c-.83,0-1.67.06-2.49,0-1.41-.11-.86,1-1.2,1.52-3.78,5.64-3.26,12.43-5.23,18.52-.54,1.67-2.51,3.23-2.25,4.21,1.16,4.43-1,8.3-2.21,11.92-2.68,7.79-4.65,15.81-6.68,23.68-2.15,8.36-4.62,16.73-6.82,25.06-2.39,9-4.11,18.42-7.84,27-1.59,3.68-1.57,7.47-2.88,11.13C125.87,987.72,123.17,993.52,123.1,999.9ZM485.59,79.08q-209.41,0-418.85-.07c-6.77,0-13.07.72-19.17,4-13.1,7.06-21.27,17.8-21.29,32.58Q25.91,364.52,26,613.43c0,12.15,2.15,22.71,11.37,31.57,7.25,7,15.28,11.86,25.2,11.87q420.36.18,840.71.19c8.33,0,15.91-1.43,22.87-6.06,11.1-7.39,18.7-17,18.71-30.92q.09-248.42.13-496.84c0-9.91-1.18-19-7-27.46-6.78-9.8-16-16.47-27.56-16.49Q698,78.81,485.59,79.08ZM179.41,795.8c.69.06,1.19.13,1.69.13Q316,795.95,451,796c3.88,0,4.12-1.49,4.11-4.61-.1-34.32-.16-68.64.06-103,0-4.58-1.18-5.63-5.67-5.62q-109.71.23-219.41.11c-5.16,0-10.32,0-15.49,0-1.82,0-2.81.15-3.86,2.38-3.78,8-5.1,16.74-7.67,25.09-1,3.38-1.21,7.21-2.52,10.19-3.19,7.25-4,15-6.12,22.48-2.39,8.31-4.46,16.84-6.82,25.15C185,777.42,182.77,786.76,179.41,795.8Zm610.63.14c-3.06-3.36-2.43-6.71-3.43-9.51-4.55-12.71-7.43-25.89-11.31-38.79-1.29-4.27-2.82-8.59-3.2-13-.57-6.49-4-12-4.77-18.56-.75-6.76-4.93-12.83-5.48-19.9-.23-3-1.61-5.83-2.45-8.7-.61-2.11-1.77-4.76-6-4.74q-115.46.4-230.91.1c-3.9,0-4.55,1.14-4.53,4.72.14,34.32.2,68.64,0,103,0,4.82,1.54,5.49,5.79,5.49q130-.18,259.9-.09Z" transform="translate(-0.91 -0.1)"/><path class="cls-1" d="M486.78,172.06c7.52-2.35,9.74,4.42,12.09,9.55,6.07,13.23,11.43,26.78,17.1,40.19,8.72,20.62,17.91,41,26.13,61.87,1.94,4.92,5.19,9.37,6.44,14.56,1.46,6,6.38,5.32,10.48,5.73,14.17,1.41,28.5.9,42.55,4,4.78,1,9.92.71,14.75.75,8.79.08,17.23,2.3,26,2.6,13.7.45,27.34,2.66,41,3.6,4.26.29,7.78,1.15,10.32,4.48,5.46,7.16,4,13-3.3,19.08-6.1,5.07-11.79,10.65-17.9,15.77-9.47,7.94-18.5,16.41-27.84,24.51-15.16,13.16-30.49,26.14-45.57,39.4-2.19,1.93-4.43,3.86-6.52,5.92-3.78,3.73-.94,8.21.07,11.53,2.25,7.41,3.46,15,5.36,22.46,1.8,7,3.11,14.17,4.74,21.24,1.71,7.37,3.57,14.7,5.3,22.07,1.46,6.27,3.22,12.53,4.38,18.79,2.15,11.64,5.73,22.92,7.72,34.58.9,5.32,1.82,10.25-2.73,14.47-3.22,3-12.18,4.09-16,1.68-12.24-7.74-24.75-15.07-37.18-22.48-14-8.33-28-16.71-42.22-24.74-10.58-6-21.44-11.81-31.17-19.3-3.19-2.45-6.29-2-9.63,0q-23,14.15-46.07,28.05c-12.17,7.29-24.52,14.3-36.71,21.57-9.41,5.61-18.66,11.5-28.05,17.15-7.77,4.68-20.76-1.74-19.91-10.45.48-4.9,2.07-10,3.31-15,2.93-11.87,5.57-23.81,8.32-35.73q2.54-11,5.05-22c2.23-9.76,4.3-19.56,6.31-29.37a204.54,204.54,0,0,1,5.15-21.56c.93-2.9.65-6.05,2.34-8.88,1-1.73-.48-3.36-2-4.63q-14.15-12.09-28.24-24.25c-9.12-7.83-18.55-15.32-27.3-23.54-8.94-8.4-18.59-16-27.57-24.29-5.59-5.18-11.44-10.07-17.09-15.17-4.34-3.91-4.82-9-2.52-13.81A12.39,12.39,0,0,1,286.85,315c12.53-1.1,25-3.15,37.53-3.69,8.24-.35,16.33-1.71,24.51-2.17,13.91-.78,27.72-2.31,41.55-3.93,6-.71,12.17-.26,18.27-1,3.55-.42,7.13-.86,10.71-1.13,1.93-.15,2.41-1.48,3-2.83,5.56-13.23,10.78-26.62,16.75-39.67,4.6-10.06,9-20.25,13.38-30.36,3.45-8,7.42-15.87,10.27-24.21,3.23-9.43,8-18.34,11.35-27.77C475.76,173.73,479.68,172.06,486.78,172.06Z" transform="translate(-0.91 -0.1)"/><path class="cls-1" d="M141.29,321.86c16.43,14.05,31.9,26.95,47,40.28Q201.69,374,215.18,385.8c4.94,4.31,5.1,10.05,3.43,16.43-3.26,12.48-5.24,25.31-8.69,37.73-2.66,9.57-4.35,19.34-7.1,28.88-2.14,7.41-3.32,15.09-5.08,23.4,9.83-5.8,19-11.18,28.13-16.59q23.35-13.84,46.7-27.74c2.81-1.67,5.51-3.54,8.34-5.2a11.37,11.37,0,0,1,12.06-.2c12.92,7.64,25.64,15.61,38.59,23.21,2.68,1.57,2.64,2.95,1.92,5.54-1.7,6.17-3.06,12.45-4.4,18.72-.77,3.59-3.47,2.32-4.84,1.5-5.13-3.06-10.1-6.39-15.36-9.3a186.67,186.67,0,0,1-18.43-11.56c-3.23-2.32-5.55-.81-7.9.62-11.14,6.81-21.82,14.47-33.35,20.53-11,5.77-21.08,13-32.22,18.55a77,77,0,0,0-10.74,7c-10.73,7.85-25.24,5.77-31.14-1.71s-6-15.53-3.73-24.5c2.55-10,4.56-20.15,7-30.16,2.53-10.49,4.55-21.08,7.05-31.57,2.14-8.93,4.36-17.84,6.59-26.75.58-2.3-1.07-3.37-2.37-4.52q-17.7-15.79-35.48-31.48-15.84-14-31.8-27.78c-3.4-2.93-7.42-5.23-9.13-9.74-.08-.21-.83-.28-.82-.4.31-7-2.19-14.17,1.43-20.82s9.47-9.28,16.86-9.9c12.22-1,24.39-2.56,36.58-3.87a16.65,16.65,0,0,1,2,0c15,.3,29.7-3.38,44.75-3.35,4.24,0,8.87-1.45,13.43-1.8,2.41-.18,2.87-3.24,3.51-5.08,6.93-20.09,16.75-39,24.39-58.79,3.58-9.29,7.58-18.55,11.93-27.55s12.16-13.23,22.59-12.52c5.31.36,14.93,7.67,17.47,14.21,6.2,16,13.76,31.4,20.32,47.23,3,7.32,6.36,14.5,9.41,21.8,2.28,5.46,1.91,6.08-3.87,5.78s-11.19,2.42-17,2.16c-3-.14-4.37-.7-5.64-3.85-4.23-10.51-9.62-20.56-13.62-31.14-2.4-6.35-6.06-12.11-7.88-18.67-.36-1.29-.37-3.26-2.23-3.25-1.49,0-1.88,1.81-2.28,2.93-6.86,19.37-16.52,37.54-24.1,56.58-3.21,8-6.87,15.94-9.55,24.25a16.6,16.6,0,0,1-15.36,11.25c-14.55.62-29.07,2.35-43.58,3.8-7.51.75-15.11,1.7-22.54,1.66C160.4,319.65,151.87,322.79,141.29,321.86Z" transform="translate(-0.91 -0.1)"/><path class="cls-1" d="M684.58,216.66c-1.75,7.81-5.63,13.81-8.19,20.36-3.18,8.15-7,16-10.4,24.12-1.4,3.4-3.27,6.56-4.21,10.21-1.35,5.18-5.84,5.38-9.95,4.58-5.15-1-10.22-2-15.52-2-4.4,0-2.41-3.17-1.72-4.94,2.5-6.42,5.24-12.76,8-19.07,5-11.29,9.65-22.72,14.58-34,3.54-8.11,5.69-17,11.77-23.9,10.87-12.34,30-8,35.95,6.81,3.94,9.85,8.19,19.54,12.52,29.22,5,11.25,9.65,22.69,14.51,34,3.61,8.41,7.38,16.74,10.94,25.17.41,1,.43,2,1.74,1.77,7.12-1.06,13.74,2.09,20.84,2.29,13.53.38,27,2.58,40.52,3.58,5.42.4,10.85.54,16.26,1.12,7.5.8,15.06,1.08,22.51,2.13,8.3,1.18,15.18,9.68,15.18,18a67.88,67.88,0,0,0,0,7c.58,5.51-2.55,8.87-6.38,12-5.42,4.51-10.91,9-16,13.83-10.9,10.36-22.62,19.75-33.87,29.7-7.54,6.67-15.15,13.25-22.78,19.83-3.53,3-.2,6.31.38,8.77,3.61,15.22,6.81,30.55,10.23,45.8,1.65,7.33,3.41,14.81,4.79,22.28a159.16,159.16,0,0,0,4.93,20.42c3.84,11.72-6.21,26.77-20,26.51-8.1-.15-13.83-4.22-20-7.74C749,507.63,737,500.26,725,493c-11.71-7.09-23.35-14.3-35-21.44-3.26-2-6.47-2.65-10-.16-8.68,6.17-18.63,10.34-27,17-1.82,1.45-4.13,1.91-6.09,3.33s-4.76,0-4.85-2.84c-.21-6.28-2.88-11.93-4-18-.49-2.58-.06-4.45,3-6.14,10.76-5.94,21.57-11.85,31.63-19,7.37-5.22,14.68-6.39,22.78-.78,12.32,8.52,25.58,15.57,38.56,23.06,13.22,7.64,26.06,15.95,39.36,24.14,1.47-3.27.07-6.47-.92-8.6-1.79-3.87-1.29-8-2.65-11.7-2-5.26-1.51-11.12-4.46-16.08-1.2-2-.77-4.48-1.17-6.69-1.83-10-4.41-19.8-6.58-29.68-1.36-6.19-2.42-12.62-4.68-18.64-3.37-9,2.27-14.49,8.09-19.21,9.45-7.67,18.46-15.79,27.6-23.78,13.5-11.81,27.09-23.5,41.62-36.08-7.74,1.75-14-1.61-20.79-1.94-16.05-.77-32.05-2.48-48.07-3.8-8.17-.68-16.34-1.61-24.53-1.95s-13-3.78-16-11.69c-3.65-9.64-8.06-19-12.14-28.44-2.52-5.83-5.1-11.73-7.33-17.74-3-8.11-7.06-15.83-10.51-23.78C688.76,227.49,686.88,222.42,684.58,216.66Z" transform="translate(-0.91 -0.1)"/></svg>