<svg xmlns="http://www.w3.org/2000/svg" xmlns:xlink="http://www.w3.org/1999/xlink" version="1.1" width="1000" height="1000" viewBox="0 0 1000 1000" xml:space="preserve">
<desc>Created with Fabric.js 3.5.0</desc>
<defs>
</defs>
<rect x="0" y="0" width="100%" height="100%" fill="rgba(255,255,255,0)"/>
<g transform="matrix(1.9295 0 0 1.9295 494.452 500.0064)" id="266860">
<path style="stroke: none; stroke-width: 1; stroke-dasharray: none; stroke-linecap: butt; stroke-dashoffset: 0; stroke-linejoin: miter; stroke-miterlimit: 4; is-custom-font: none; font-file-url: none; fill: rgb(255,0,0); fill-rule: evenodd; opacity: 1;" vector-effect="non-scaling-stroke" transform=" translate(-256, -145.6568)" d="M 194.15 156.28 c 0.86 -3.66 2.44 -4.73 4.24 -5.07 c 4.93 -0.76 4.16 22.84 -4.24 23.94 v -18.87 z m 220.4 -17.59 c 0.99 -4.13 2.76 -5.33 4.79 -5.72 c 5.58 -0.86 4.7 25.81 -4.79 27.05 v -21.33 z m 9.08 -14.62 c -0.03 0.49 -0.05 0.98 -0.08 1.5 l -4.02 2.52 c 12.86 -0.9 10.32 35.01 -4.38 37.17 c -0.35 0.05 -0.65 0.05 -0.96 0.02 c 0 1.83 0.05 3.55 -0.2 5.41 c -2.07 15.51 -18.36 36.73 -31.02 44.2 c -18.2 10.74 -41.4 12.58 -62.16 -4.62 c -10.74 -8.9 -22.36 -25.15 -26.57 -38.79 c -0.93 -3.03 -0.94 -3.39 -0.94 -6.2 c -11.11 2.26 -16.31 -22.16 -12.48 -31.95 c 2.4 -6.09 8.42 -6.99 12.48 -2.32 v -3.02 l -3.02 -1.7 c -0.36 -2.45 -0.4 -4.96 -0.26 -7.48 c -2.76 -4.62 -3.51 -8.56 -2.64 -11.9 c -1.22 -1.66 -1.97 -3.45 -2.13 -5.39 V 66.68 l 53.94 16.48 c 5.1 1.11 10.29 1.68 15.57 1.67 c 4.93 -0.03 9.93 -0.56 15.02 -1.67 l 56.47 -16.31 l 0.93 34.36 c -0.34 3.23 -1.24 5.98 -2.68 8.25 c -0.19 0.3 -0.42 0.6 -0.68 0.89 c 1.53 3.85 1.59 8.39 -0.19 13.72 z m -98.75 82.41 c 24.88 18.58 52.96 10.78 71.37 -13.11 c 6.56 -8.52 10.91 -18.2 11.93 -26.95 v -42.14 c 0.58 0 -0.87 -2.75 -2.56 -5.62 c -17.81 4.9 -42.55 7.65 -50.97 7.25 c -10.29 -0.49 -35.56 -2.98 -52.61 -9.54 c -1.64 0.99 -2.75 2.55 -3.24 4.86 v 46.12 c 3.12 15.01 14 30.1 26.08 39.13 z m 37.87 -70.93 c -0.87 1.46 -0.62 2.99 0.77 3.76 c 2.75 1.55 6.27 -0.76 8.95 -1.61 c 7.04 -2.24 15.41 -2.51 21.5 1.31 c 1.62 1.01 3.28 2.32 4.95 3.92 c -0.62 -2.22 -1.59 -4.25 -3.01 -6.06 c -5.35 -6.82 -17.96 -7.97 -26.47 -5.26 c -2.08 0.66 -5.54 2.07 -6.69 3.94 z m -19.35 0.43 c 0.6 1.32 0.27 2.64 -0.97 3.33 c -2.77 1.55 -6.27 -0.76 -8.95 -1.61 c -7.04 -2.24 -15.42 -2.51 -21.52 1.31 c -1.62 1.01 -3.27 2.32 -4.95 3.92 c 0.63 -2.22 1.61 -4.25 3.02 -6.06 c 5.35 -6.79 17.83 -7.95 26.34 -5.3 c 2.24 0.7 6.05 2.23 7.03 4.41 z m -27.89 10.79 c -0.32 -1.03 0.17 -2.16 1.07 -2.51 c 6.96 -2.69 14.05 -2.52 21.05 0 c 0.9 0.35 1.41 1.45 1.13 2.49 c -0.28 1.03 -1.27 1.59 -2.16 1.28 c -1.16 -0.41 -2.32 -0.77 -3.48 -1.02 a 4.872 4.872 0 0 1 -4.7 6.18 c -2.68 0 -4.88 -2.19 -4.88 -4.87 c 0 -0.67 0.14 -1.29 0.37 -1.86 c -1.82 0.19 -3.66 0.61 -5.49 1.27 c -1.15 0.4 -2.35 0.78 -2.91 -0.96 z m 58.61 0 c -0.16 0.46 -0.24 0.97 -0.24 1.5 c 0 2.68 2.19 4.87 4.88 4.87 a 4.876 4.876 0 0 0 4.38 -7.01 c 2.11 0.23 4.28 0.7 6.42 1.39 c 0.93 0.31 1.89 -0.3 2.14 -1.37 c 0.26 -1.05 -0.28 -2.14 -1.18 -2.44 c -3.51 -1.16 -7.01 -1.73 -10.52 -1.71 c -3.48 0 -6.97 0.6 -10.39 1.73 c -0.94 0.31 -1.45 1.39 -1.2 2.42 c 0.26 1.03 1.25 1.66 2.15 1.35 c 1.1 -0.36 2.21 -0.66 3.31 -0.9 c 0.43 -0.08 0.35 -0.16 0.25 0.17 z m -27.4 31.29 c -0.03 -0.56 0.13 -1.12 0.52 -1.59 c 0.81 -0.95 2.22 -1.07 3.18 -0.28 c 2.32 1.95 4.3 1.91 6.62 -0.02 c 0.95 -0.8 2.38 -0.65 3.17 0.3 c 0.81 0.96 0.66 2.38 -0.3 3.18 c -3.62 2.99 -7.68 3.36 -11.56 0.63 c -0.82 -0.58 -1.56 -1.11 -1.63 -2.22 z m -7.45 14.7 c -0.48 -1.95 1.61 -3.65 3.41 -2.67 c 7.22 3.82 14.2 4 21.41 0.03 c 2.76 -1.48 4.98 2.63 2.29 4.15 c -8.07 4.47 -16.53 4.59 -24.81 0.56 c -0.99 -0.48 -1.99 -0.86 -2.3 -2.07 z m -46.66 -32.99 v -21.08 c -0.99 -4.13 -2.77 -5.33 -4.81 -5.72 c -5.44 -0.85 -4.98 25.33 4.57 27.01 c 0.31 0.06 0.24 0.1 0.24 -0.21 z m 106.53 57.26 c 39.02 35.11 93.97 -9.73 112.86 74.28 H 195.13 c 18.95 -84.04 75.09 -40.3 112.86 -74.28 c 20.33 31.25 77.34 29.95 91.15 0 z M 450.07 42.1 v 41.99 h 1.33 c 0.9 0 1.64 0.74 1.64 1.65 v 11.28 c 0 0.9 -0.74 1.64 -1.64 1.64 h -1.33 v 3.96 c 1.68 0.31 2.97 1.81 2.97 3.58 c 0 2 -1.64 3.64 -3.64 3.64 h -6.53 a 3.64 3.64 0 0 1 -0.66 -7.22 v -3.96 h -1.33 c -0.9 0 -1.64 -0.74 -1.64 -1.64 V 85.74 c 0 -0.91 0.74 -1.65 1.64 -1.65 h 1.33 V 44.55 l -68.72 21.37 c -12.45 2.96 -24.89 3.16 -37.34 0 L 260.3 43.28 l -6.85 -2.04 c -8.54 -3.5 -6.41 -11.7 1.54 -13.58 l 85.79 -25.61 c 8.85 -2.53 17.69 -2.92 26.54 0 l 84.24 25.3 c 9.16 2.22 10.97 10.71 0.31 14.19 l -1.8 0.56 z m -244.75 81.01 l -0.81 -30.4 l -49.97 14.43 c -4.51 0.98 -8.94 1.46 -13.3 1.47 c -4.66 0.02 -9.25 -0.49 -13.77 -1.47 L 79.74 92.55 v 30.84 c 0.16 1.81 0.89 3.47 2.07 5.01 c -1.03 2.57 -0.45 5.92 2.16 10.28 c -0.14 2.24 -0.1 4.46 0.23 6.62 l 2.66 1.51 v 2.67 c -3.58 -4.14 -8.92 -3.33 -11.04 2.06 c -3.38 8.65 1.22 30.26 11.04 28.26 c 0 2.49 0.02 2.8 0.85 5.5 c 3.71 12.06 14 26.44 23.49 34.31 c 18.38 15.21 38.9 13.59 55.01 4.08 c 11.2 -6.6 25.62 -25.38 27.44 -39.1 c 0.22 -1.64 0.18 -3.17 0.18 -4.79 c 0.27 0.03 0.54 0.03 0.85 -0.02 c 13.01 -1.9 15.25 -33.68 3.87 -32.88 l 3.56 -2.23 c 0.03 -0.46 0.04 -0.9 0.07 -1.33 c 1.66 -4.98 1.52 -8.86 -0.06 -11.9 c 0.32 -0.34 0.61 -0.68 0.83 -1.03 c 1.27 -2 2.07 -4.44 2.37 -7.3 z M 94.6 136.53 c 15.09 5.81 37.45 8 46.55 8.43 c 7.44 0.36 29.34 -2.07 45.1 -6.4 c 1.49 2.53 2.78 4.96 2.26 4.96 v 37.29 c -0.9 7.74 -4.76 16.31 -10.56 23.84 c -16.28 21.14 -41.13 28.04 -63.14 11.6 c -10.69 -7.98 -20.32 -21.34 -23.08 -34.62 v -40.8 c 0.43 -2.04 1.41 -3.42 2.87 -4.3 z m 130.97 -65.71 v 37.15 h 1.18 c 0.8 0 1.45 0.65 1.45 1.45 v 9.98 c 0 0.8 -0.66 1.46 -1.45 1.46 h -1.18 v 3.5 a 3.24 3.24 0 0 1 2.63 3.17 c 0 1.77 -1.45 3.22 -3.23 3.22 h -5.76 a 3.23 3.23 0 0 1 -3.22 -3.22 a 3.23 3.23 0 0 1 2.63 -3.17 v -3.5 h -1.18 c -0.79 0 -1.45 -0.65 -1.45 -1.46 v -9.98 c 0 -0.8 0.65 -1.45 1.45 -1.45 h 1.18 V 72.98 l -60.8 18.91 c -11.02 2.62 -22.03 2.8 -33.04 0 L 57.67 71.86 l -6.06 -1.81 c -7.56 -3.09 -5.68 -10.34 1.36 -12.01 l 75.9 -22.67 c 7.83 -2.23 15.66 -2.58 23.48 0 l 74.55 22.39 c 8.09 1.98 9.7 9.48 0.27 12.56 l -1.6 0.5 z M 180.51 225.6 c 5.77 5.19 11.94 8.39 18.28 10.49 c -9.39 10.29 -17.24 25.71 -22.72 49.18 c -0.6 1.91 -0.93 3.94 -0.93 6.04 H 0 c 16.77 -74.36 66.44 -35.65 99.86 -65.71 c 17.99 27.63 68.43 26.49 80.65 0 z m -32.18 -72.1 c -0.78 1.29 -0.56 2.65 0.66 3.33 c 2.44 1.37 5.55 -0.67 7.92 -1.43 c 9.03 -2.88 16.59 -1.87 23.41 4.63 c -3.11 -11.05 -16.49 -13.07 -26.09 -10.02 c -1.84 0.59 -4.9 1.83 -5.9 3.49 z m -17.13 0.37 c 0.53 1.17 0.24 2.35 -0.87 2.96 c -2.44 1.37 -5.55 -0.67 -7.91 -1.43 c -9.03 -2.88 -16.6 -1.87 -23.42 4.63 c 3.14 -11.01 16.36 -13.06 25.98 -10.05 c 1.98 0.62 5.35 1.96 6.22 3.89 z m -24.69 9.56 c -0.28 -0.92 0.15 -1.92 0.96 -2.22 c 6.16 -2.39 12.43 -2.24 18.62 0 c 0.8 0.3 1.25 1.28 1 2.19 c -0.26 0.92 -1.12 1.41 -1.92 1.14 c -1.02 -0.36 -2.05 -0.68 -3.07 -0.91 c 0.11 0.37 0.15 0.75 0.15 1.17 c 0 2.37 -1.91 4.31 -4.31 4.31 c -2.38 0 -4.31 -1.94 -4.31 -4.31 c 0 -0.6 0.12 -1.14 0.31 -1.65 c -1.61 0.17 -3.23 0.54 -4.85 1.12 c -1.02 0.35 -2.07 0.69 -2.58 -0.84 z m 51.86 -0.01 c -0.13 0.41 -0.2 0.86 -0.2 1.34 c 0 2.36 1.94 4.3 4.3 4.3 c 2.38 0 4.32 -1.94 4.32 -4.3 c 0 -0.7 -0.16 -1.33 -0.44 -1.9 c 1.88 0.2 3.79 0.61 5.69 1.23 c 0.82 0.27 1.66 -0.27 1.89 -1.21 c 0.23 -0.93 -0.25 -1.89 -1.05 -2.17 c -3.1 -1.02 -6.2 -1.53 -9.3 -1.5 c -3.09 0 -6.17 0.52 -9.2 1.53 c -0.82 0.27 -1.28 1.22 -1.06 2.14 c 0.24 0.91 1.1 1.46 1.91 1.18 c 0.96 -0.3 1.94 -0.58 2.92 -0.78 c 0.38 -0.08 0.31 -0.14 0.22 0.14 z m -24.24 27.68 c -0.02 -0.48 0.12 -0.99 0.46 -1.39 c 0.72 -0.85 1.96 -0.96 2.81 -0.25 c 2.06 1.72 3.81 1.68 5.86 -0.02 c 0.85 -0.71 2.11 -0.58 2.81 0.27 c 0.7 0.84 0.58 2.1 -0.27 2.81 c -3.2 2.64 -6.8 2.97 -10.22 0.56 c -0.74 -0.52 -1.39 -0.98 -1.45 -1.98 z m -6.59 13.01 c -0.42 -1.72 1.42 -3.22 3.02 -2.36 c 6.38 3.38 12.56 3.54 18.94 0.03 c 2.44 -1.31 4.41 2.32 2.03 3.67 c -7.15 3.95 -14.63 4.06 -21.95 0.5 c -0.88 -0.42 -1.77 -0.77 -2.04 -1.84 z m -41.29 -29.19 v -18.64 c -0.87 -3.66 -2.45 -4.73 -4.25 -5.07 c -4.81 -0.74 -4.41 22.41 4.04 23.9 c 0.27 0.05 0.21 0.1 0.21 -0.19 z" stroke-linecap="round"/>
</g>
</svg>